{
	"asset":{
		"generator":"Khronos glTF Blender I/O v3.6.27",
		"version":"2.0"
	},
	"extensionsUsed":[
		"KHR_materials_specular",
		"KHR_materials_ior"
	],
	"scene":0,
	"scenes":[
		{
			"name":"Scene",
			"nodes":[
				0,
				1
			]
		}
	],
	"nodes":[
		{
			"mesh":0,
			"name":"dorsz1_teaser",
			"scale":[
				0.015333401039242744,
				0.015333401039242744,
				0.015333401039242744
			]
		},
		{
			"mesh":1,
			"name":"4",
			"rotation":[
				0,
				0.7071068286895752,
				0,
				0.7071068286895752
			],
			"scale":[
				0.3727518320083618,
				0.3727518320083618,
				0.3727518320083618
			],
			"translation":[
				2.6662673950195312,
				0.4924665093421936,
				0
			]
		}
	],
	"materials":[
		{
			"doubleSided":true,
			"name":"white",
			"pbrMetallicRoughness":{
				"baseColorFactor":[
					0.8713673949241638,
					0.08021961152553558,
					0.006048878189176321,
					1
				],
				"metallicFactor":0,
				"roughnessFactor":0.5
			}
		},
		{
			"doubleSided":true,
			"extensions":{
				"KHR_materials_specular":{
					"specularColorFactor":[
						0,
						0,
						0
					]
				},
				"KHR_materials_ior":{
					"ior":1.4500000476837158
				}
			},
			"name":"Aluminum_nitride_(AlN)",
			"pbrMetallicRoughness":{
				"baseColorFactor":[
					0.800000011920929,
					0.800000011920929,
					0.800000011920929,
					1
				],
				"metallicFactor":0
			}
		},
		{
			"alphaMode":"BLEND",
			"doubleSided":true,
			"name":"4",
			"pbrMetallicRoughness":{
				"baseColorTexture":{
					"index":0
				},
				"metallicFactor":0,
				"roughnessFactor":0.5
			}
		}
	],
	"meshes":[
		{
			"name":"dorsz1_teaser",
			"primitives":[
				{
					"attributes":{
						"POSITION":0,
						"NORMAL":1,
						"TEXCOORD_0":2
					},
					"indices":3,
					"material":0
				},
				{
					"attributes":{
						"POSITION":4,
						"NORMAL":5,
						"TEXCOORD_0":6
					},
					"indices":7,
					"material":1
				}
			]
		},
		{
			"name":"4",
			"primitives":[
				{
					"attributes":{
						"POSITION":8,
						"NORMAL":9,
						"TEXCOORD_0":10
					},
					"indices":11,
					"material":2
				}
			]
		}
	],
	"textures":[
		{
			"sampler":0,
			"source":0
		}
	],
	"images":[
		{
			"bufferView":12,
			"mimeType":"image/png",
			"name":"4"
		}
	],
	"accessors":[
		{
			"bufferView":0,
			"componentType":5126,
			"count":33621,
			"max":[
				206.5,
				39.50825119018555,
				33
			],
			"min":[
				43.349998474121094,
				2.0349531173706055,
				-33
			],
			"type":"VEC3"
		},
		{
			"bufferView":1,
			"componentType":5126,
			"count":33621,
			"type":"VEC3"
		},
		{
			"bufferView":2,
			"componentType":5126,
			"count":33621,
			"type":"VEC2"
		},
		{
			"bufferView":3,
			"componentType":5123,
			"count":81399,
			"type":"SCALAR"
		},
		{
			"bufferView":4,
			"componentType":5126,
			"count":29759,
			"max":[
				249.00001525878906,
				44.5,
				33.04999923706055
			],
			"min":[
				0,
				0.010639999993145466,
				-33.04999923706055
			],
			"type":"VEC3"
		},
		{
			"bufferView":5,
			"componentType":5126,
			"count":29759,
			"type":"VEC3"
		},
		{
			"bufferView":6,
			"componentType":5126,
			"count":29759,
			"type":"VEC2"
		},
		{
			"bufferView":7,
			"componentType":5123,
			"count":84480,
			"type":"SCALAR"
		},
		{
			"bufferView":8,
			"componentType":5126,
			"count":289,
			"max":[
				0.3583333194255829,
				0,
				0.5
			],
			"min":[
				-0.3583333194255829,
				0,
				-0.5
			],
			"type":"VEC3"
		},
		{
			"bufferView":9,
			"componentType":5126,
			"count":289,
			"type":"VEC3"
		},
		{
			"bufferView":10,
			"componentType":5126,
			"count":289,
			"type":"VEC2"
		},
		{
			"bufferView":11,
			"componentType":5123,
			"count":1536,
			"type":"SCALAR"
		}
	],
	"bufferViews":[
		{
			"buffer":0,
			"byteLength":403452,
			"byteOffset":0,
			"target":34962
		},
		{
			"buffer":0,
			"byteLength":403452,
			"byteOffset":403452,
			"target":34962
		},
		{
			"buffer":0,
			"byteLength":268968,
			"byteOffset":806904,
			"target":34962
		},
		{
			"buffer":0,
			"byteLength":162798,
			"byteOffset":1075872,
			"target":34963
		},
		{
			"buffer":0,
			"byteLength":357108,
			"byteOffset":1238672,
			"target":34962
		},
		{
			"buffer":0,
			"byteLength":357108,
			"byteOffset":1595780,
			"target":34962
		},
		{
			"buffer":0,
			"byteLength":238072,
			"byteOffset":1952888,
			"target":34962
		},
		{
			"buffer":0,
			"byteLength":168960,
			"byteOffset":2190960,
			"target":34963
		},
		{
			"buffer":0,
			"byteLength":3468,
			"byteOffset":2359920,
			"target":34962
		},
		{
			"buffer":0,
			"byteLength":3468,
			"byteOffset":2363388,
			"target":34962
		},
		{
			"buffer":0,
			"byteLength":2312,
			"byteOffset":2366856,
			"target":34962
		},
		{
			"buffer":0,
			"byteLength":3072,
			"byteOffset":2369168,
			"target":34963
		},
		{
			"buffer":0,
			"byteLength":18126,
			"byteOffset":2372240
		}
	],
	"samplers":[
		{
			"magFilter":9729,
			"minFilter":9987,
			"wrapS":33071,
			"wrapT":33071
		}
	],
	"buffers":[
		{
			"byteLength":2390368,
			"uri":"data:application/octet-stream;base64,"
		}
	]
}
